<?xml version="1.0" encoding="UTF-8" standalone="no"?>
<svg
   viewBox="0 0 64 64"
   version="1.1"
   id="svg2"
   sodipodi:docname="favicon.svg"
   inkscape:version="1.4.2 (f4327f4, 2025-05-13)"
   xmlns:inkscape="http://www.inkscape.org/namespaces/inkscape"
   xmlns:sodipodi="http://sodipodi.sourceforge.net/DTD/sodipodi-0.dtd"
   xmlns="http://www.w3.org/2000/svg"
   xmlns:svg="http://www.w3.org/2000/svg">
  <defs
     id="defs2">
    <clipPath
       id="clippath-4">
      <path
         class="cls-5"
         d="m 346.03,193.5 -5.14,6.87 c -3,4.01 -2.23,9.69 1.74,12.75 l 12.06,9.32 c 4.05,3.13 9.89,2.34 12.96,-1.76 l 5.14,-6.87 c 3,-4.01 2.23,-9.69 -1.74,-12.75 l -12.06,-9.32 c -1.67,-1.29 -3.65,-1.92 -5.6,-1.92 -2.79,0 -5.55,1.27 -7.36,3.68"
         id="path14" />
    </clipPath>
    <linearGradient
       id="Névtelen_színátmenet_5"
       data-name="Névtelen színátmenet 5"
       x1="59.299999"
       y1="580.94"
       x2="60.299999"
       y2="580.94"
       gradientTransform="matrix(35.55,0,0,-35.55,-1761.03,20858.55)"
       gradientUnits="userSpaceOnUse">
      <stop
         offset="0"
         stop-color="#f9bb0d"
         id="stop15" />
      <stop
         offset=".14"
         stop-color="#f9bb0d"
         id="stop16" />
      <stop
         offset="1"
         stop-color="#ff9200"
         id="stop17" />
      <stop
         offset="1"
         stop-color="#ff9200"
         id="stop18" />
    </linearGradient>
    <clipPath
       id="clippath-3">
      <path
         class="cls-5"
         d="m 313.6,177.38 -29.9,49.72 c -3.97,6.61 4.25,13.75 10.24,8.9 4.67,-3.79 11.61,-0.19 11.21,5.8 l -6.13,92.28 c -0.48,7.2 9.03,10.19 12.76,4.02 l 20.68,-34.22 c 2.5,-4.14 8.38,-4.48 11.34,-0.65 l 27.09,35.07 c 4.03,5.21 12.37,2.34 12.33,-4.25 l -0.64,-104.4 c -0.04,-5.96 6.99,-9.15 11.45,-5.2 l 6.67,5.9 c 5.75,5.09 14.26,-1.63 10.64,-8.4 l -22.66,-42.34 c -1.16,-2.17 -3.4,-3.56 -5.86,-3.63 l -63.11,-1.94 c -0.07,0 -0.14,0 -0.21,0 -2.41,0 -4.65,1.26 -5.9,3.34"
         id="path11" />
    </clipPath>
    <linearGradient
       id="Névtelen_színátmenet_4"
       data-name="Névtelen színátmenet 4"
       x1="59.299999"
       y1="580.94"
       x2="60.299999"
       y2="580.94"
       gradientTransform="matrix(132.34,0,0,-132.34,-7561.48,77142.82)"
       gradientUnits="userSpaceOnUse">
      <stop
         offset="0"
         stop-color="#0685f7"
         id="stop12" />
      <stop
         offset=".29"
         stop-color="#0685f7"
         id="stop13" />
      <stop
         offset="1"
         stop-color="#05007f"
         id="stop14" />
    </linearGradient>
    <clipPath
       id="clippath-2">
      <path
         class="cls-5"
         d="m 325.32,138.88 c 0,14.52 11.58,26.29 25.86,26.29 14.28,0 25.86,-11.77 25.86,-26.29 0,-14.52 -11.58,-26.29 -25.86,-26.29 -14.28,0 -25.86,11.77 -25.86,26.29"
         id="path8" />
    </clipPath>
    <linearGradient
       id="Névtelen_színátmenet_3"
       data-name="Névtelen színátmenet 3"
       x1="59.299999"
       y1="580.95001"
       x2="60.299999"
       y2="580.95001"
       gradientTransform="matrix(51.73,0,0,-51.73,-2739.62,30189.83)"
       gradientUnits="userSpaceOnUse">
      <stop
         offset="0"
         stop-color="#0685f7"
         id="stop9" />
      <stop
         offset=".24"
         stop-color="#0685f7"
         id="stop10" />
      <stop
         offset="1"
         stop-color="#05007f"
         id="stop11" />
    </linearGradient>
    <clipPath
       id="clippath-1">
      <path
         class="cls-5"
         d="m 362.87,169.63 c -5.27,6.03 -6.64,8.03 0.25,12.5 l 13.53,1.54 c 6.28,4.08 12.66,4.76 17.61,-0.63 15.77,-17.17 50.62,-16.41 65.03,0.89 17.44,20.93 10.8,49.28 0.37,62.42 -31.24,39.36 -104.18,103.57 -128.38,125.7 -4.7,4.3 -5.65,10.93 -2.33,16.2 l 1.19,1.89 c 4.78,7.56 16.06,9.02 22.96,2.98 33.59,-29.41 109.25,-90.61 137.95,-139.29 11.46,-19.44 18.32,-63.54 -14.58,-93.44 -16.15,-14.68 -33.4,-20.22 -49.68,-20.23 -27.14,0 -51.61,15.38 -63.94,29.48"
         id="path4" />
    </clipPath>
    <linearGradient
       id="Névtelen_színátmenet_2"
       data-name="Névtelen színátmenet 2"
       x1="59.299999"
       y1="580.78998"
       x2="60.299999"
       y2="580.78998"
       gradientTransform="matrix(173.55,0,0,-173.55,-9931.08,101065.6)"
       gradientUnits="userSpaceOnUse">
      <stop
         offset="0"
         stop-color="#f9bb0d"
         id="stop5" />
      <stop
         offset=".14"
         stop-color="#f9bb0d"
         id="stop6" />
      <stop
         offset="1"
         stop-color="#ff9200"
         id="stop7" />
      <stop
         offset="1"
         stop-color="#ff9200"
         id="stop8" />
    </linearGradient>
    <clipPath
       id="clippath">
      <path
         class="cls-5"
         d="m 240.01,105.88 c -73.91,34.73 -72.06,113.1 -54.71,151.09 24.06,52.67 79.2,123.73 108.8,161.05 5.85,7.38 15.99,14.16 23.18,7.85 l 5.22,-3.3 c 5.83,-5.12 5.14,-16.23 0.5,-22.27 -27.21,-35.37 -91.81,-118.57 -107.76,-164.73 -10.16,-29.4 -3.33,-77.7 36.16,-98.54 34.09,-17.99 63.2,-3.8 77.15,5.89 5.69,3.95 13.49,4.16 19.36,0.44 l 2.08,-1.31 c 9.08,-5.74 9.45,-17.81 0.8,-24.08 -14.17,-10.28 -37.09,-22.61 -65.51,-22.61 -13.9,0 -29.12,2.95 -45.27,10.54"
         id="path1" />
    </clipPath>
    <linearGradient
       id="Névtelen_színátmenet"
       data-name="Névtelen színátmenet"
       x1="59.299999"
       y1="581"
       x2="60.299999"
       y2="581"
       gradientTransform="matrix(181.7,0,0,-181.7,-10566.32,105832.11)"
       gradientUnits="userSpaceOnUse">
      <stop
         offset="0"
         stop-color="#f9bb0d"
         id="stop1" />
      <stop
         offset=".14"
         stop-color="#f9bb0d"
         id="stop2" />
      <stop
         offset="1"
         stop-color="#ff9200"
         id="stop3" />
      <stop
         offset="1"
         stop-color="#ff9200"
         id="stop4" />
    </linearGradient>
  </defs>
  <sodipodi:namedview
     id="namedview2"
     pagecolor="#ffffff"
     bordercolor="#000000"
     borderopacity="0.25"
     inkscape:showpageshadow="2"
     inkscape:pageopacity="0.0"
     inkscape:pagecheckerboard="0"
     inkscape:deskcolor="#d1d1d1"
     inkscape:zoom="8.9161746"
     inkscape:cx="36.394532"
     inkscape:cy="32.469082"
     inkscape:window-width="1920"
     inkscape:window-height="1009"
     inkscape:window-x="-8"
     inkscape:window-y="-8"
     inkscape:window-maximized="1"
     inkscape:current-layer="svg2" />
  <!-- Háttér kör (Arany/Barna szín - Primary) -->
  <!-- Belső motívum (Fehér levél/láng) -->
  <!-- Jobb oldali ív a harmóniáért -->
  <g
     class="cls-6"
     clip-path="url(#clippath)"
     id="g18"
     style="fill:none"
     transform="matrix(0.18638158,0,0,0.18638158,-31.119707,-16.63469)">
    <rect
       class="cls-14"
       x="71.760002"
       y="81.169998"
       width="382.01001"
       height="365.17999"
       transform="rotate(-49.76,262.74938,263.75446)"
       id="rect18"
       style="fill:url(#N%C3%A9vtelen_sz%C3%ADn%C3%A1tmenet)" />
  </g>
  <g
     class="cls-7"
     clip-path="url(#clippath-1)"
     id="g19"
     style="fill:none"
     transform="matrix(0.18638158,0,0,0.18638158,-31.119707,-16.63469)">
    <rect
       class="cls-11"
       x="259.34"
       y="115.78"
       width="316.34"
       height="307.73001"
       transform="rotate(-49.64,417.51635,269.64602)"
       id="rect19"
       style="fill:url(#N%C3%A9vtelen_sz%C3%ADn%C3%A1tmenet_2)" />
  </g>
  <g
     class="cls-3"
     clip-path="url(#clippath-2)"
     id="g20"
     style="fill:none"
     transform="matrix(0.18638158,0,0,0.18638158,-31.119707,-16.63469)">
    <rect
       class="cls-13"
       x="316.84"
       y="104.32"
       width="68.690002"
       height="69.120003"
       transform="rotate(-24.11,351.18508,138.86852)"
       id="rect20"
       style="fill:url(#N%C3%A9vtelen_sz%C3%ADn%C3%A1tmenet_3)" />
  </g>
  <g
     class="cls-4"
     clip-path="url(#clippath-3)"
     id="g21"
     style="fill:none"
     transform="matrix(0.18638158,0,0,0.18638158,-31.119707,-16.63469)">
    <rect
       class="cls-12"
       x="253.89"
       y="155.56"
       width="186.92999"
       height="207.19"
       transform="rotate(-20.83,347.28316,259.13807)"
       id="rect21"
       style="fill:url(#N%C3%A9vtelen_sz%C3%ADn%C3%A1tmenet_4)" />
  </g>
  <g
     class="cls-2"
     clip-path="url(#clippath-4)"
     id="g22"
     style="fill:none"
     transform="matrix(0.18638158,0,0,0.18638158,-31.119707,-16.63469)">
    <rect
       class="cls-10"
       x="331.20001"
       y="181.83"
       width="51.279999"
       height="51.73"
       transform="rotate(-53.55,356.83807,207.69284)"
       id="rect22"
       style="fill:url(#N%C3%A9vtelen_sz%C3%ADn%C3%A1tmenet_5)" />
  </g>
</svg>
