<?xml version="1.0" encoding="UTF-8" standalone="no"?>
<svg
   id="Réteg_1"
   data-name="Réteg 1"
   viewBox="0 0 980.65 527.51"
   version="1.1"
   sodipodi:docname="logo_path.svg"
   inkscape:version="1.4.2 (f4327f4, 2025-05-13)"
   xmlns:inkscape="http://www.inkscape.org/namespaces/inkscape"
   xmlns:sodipodi="http://sodipodi.sourceforge.net/DTD/sodipodi-0.dtd"
   xmlns="http://www.w3.org/2000/svg"
   xmlns:svg="http://www.w3.org/2000/svg">
  <sodipodi:namedview
     id="namedview23"
     pagecolor="#ffffff"
     bordercolor="#000000"
     borderopacity="0.25"
     inkscape:showpageshadow="2"
     inkscape:pageopacity="0.0"
     inkscape:pagecheckerboard="0"
     inkscape:deskcolor="#d1d1d1"
     inkscape:zoom="1.5298288"
     inkscape:cx="490.57777"
     inkscape:cy="263.755"
     inkscape:window-width="1920"
     inkscape:window-height="1009"
     inkscape:window-x="-8"
     inkscape:window-y="-8"
     inkscape:window-maximized="1"
     inkscape:current-layer="Réteg_1" />
  <defs
     id="defs18">
    <style
       id="style1">
      .cls-1 {
        letter-spacing: -.02em;
      }

      .cls-2 {
        clip-path: url(#clippath-4);
      }

      .cls-2, .cls-3, .cls-4, .cls-5, .cls-6, .cls-7 {
        fill: none;
      }

      .cls-3 {
        clip-path: url(#clippath-2);
      }

      .cls-8 {
        font-family: TwCenMT-Regular, 'Tw Cen MT';
        font-size: 76.06px;
      }

      .cls-8, .cls-9 {
        fill: #0856f4;
      }

      .cls-9 {
        font-family: TwCenMT-Bold, 'Tw Cen MT';
        font-size: 107.83px;
        font-weight: 700;
      }

      .cls-4 {
        clip-path: url(#clippath-3);
      }

      .cls-10 {
        fill: url(#Névtelen_színátmenet_5);
      }

      .cls-11 {
        fill: url(#Névtelen_színátmenet_2);
      }

      .cls-6 {
        clip-path: url(#clippath);
      }

      .cls-12 {
        fill: url(#Névtelen_színátmenet_4);
      }

      .cls-7 {
        clip-path: url(#clippath-1);
      }

      .cls-13 {
        fill: url(#Névtelen_színátmenet_3);
      }

      .cls-14 {
        fill: url(#Névtelen_színátmenet);
      }
    </style>
    <clipPath
       id="clippath">
      <path
         class="cls-5"
         d="m240.01,105.88c-73.91,34.73-72.06,113.1-54.71,151.09,24.06,52.67,79.2,123.73,108.8,161.05,5.85,7.38,15.99,14.16,23.18,7.85l5.22-3.3c5.83-5.12,5.14-16.23.5-22.27-27.21-35.37-91.81-118.57-107.76-164.73-10.16-29.4-3.33-77.7,36.16-98.54,34.09-17.99,63.2-3.8,77.15,5.89,5.69,3.95,13.49,4.16,19.36.44l2.08-1.31c9.08-5.74,9.45-17.81.8-24.08-14.17-10.28-37.09-22.61-65.51-22.61-13.9,0-29.12,2.95-45.27,10.54"
         id="path1" />
    </clipPath>
    <linearGradient
       id="Névtelen_színátmenet"
       data-name="Névtelen színátmenet"
       x1="59.3"
       y1="581"
       x2="60.3"
       y2="581"
       gradientTransform="translate(-10566.32 105832.11) scale(181.7 -181.7)"
       gradientUnits="userSpaceOnUse">
      <stop
         offset="0"
         stop-color="#f9bb0d"
         id="stop1" />
      <stop
         offset=".14"
         stop-color="#f9bb0d"
         id="stop2" />
      <stop
         offset="1"
         stop-color="#ff9200"
         id="stop3" />
      <stop
         offset="1"
         stop-color="#ff9200"
         id="stop4" />
    </linearGradient>
    <clipPath
       id="clippath-1">
      <path
         class="cls-5"
         d="m362.87,169.63c-5.27,6.03-6.64,8.03.25,12.5l13.53,1.54c6.28,4.08,12.66,4.76,17.61-.63,15.77-17.17,50.62-16.41,65.03.89,17.44,20.93,10.8,49.28.37,62.42-31.24,39.36-104.18,103.57-128.38,125.7-4.7,4.3-5.65,10.93-2.33,16.2l1.19,1.89c4.78,7.56,16.06,9.02,22.96,2.98,33.59-29.41,109.25-90.61,137.95-139.29,11.46-19.44,18.32-63.54-14.58-93.44-16.15-14.68-33.4-20.22-49.68-20.23-27.14,0-51.61,15.38-63.94,29.48"
         id="path4" />
    </clipPath>
    <linearGradient
       id="Névtelen_színátmenet_2"
       data-name="Névtelen színátmenet 2"
       x1="59.3"
       y1="580.79"
       x2="60.3"
       y2="580.79"
       gradientTransform="translate(-9931.08 101065.6) scale(173.55 -173.55)"
       gradientUnits="userSpaceOnUse">
      <stop
         offset="0"
         stop-color="#f9bb0d"
         id="stop5" />
      <stop
         offset=".14"
         stop-color="#f9bb0d"
         id="stop6" />
      <stop
         offset="1"
         stop-color="#ff9200"
         id="stop7" />
      <stop
         offset="1"
         stop-color="#ff9200"
         id="stop8" />
    </linearGradient>
    <clipPath
       id="clippath-2">
      <path
         class="cls-5"
         d="m325.32,138.88c0,14.52,11.58,26.29,25.86,26.29s25.86-11.77,25.86-26.29-11.58-26.29-25.86-26.29-25.86,11.77-25.86,26.29"
         id="path8" />
    </clipPath>
    <linearGradient
       id="Névtelen_színátmenet_3"
       data-name="Névtelen színátmenet 3"
       x1="59.3"
       y1="580.95"
       x2="60.3"
       y2="580.95"
       gradientTransform="translate(-2739.62 30189.83) scale(51.73 -51.73)"
       gradientUnits="userSpaceOnUse">
      <stop
         offset="0"
         stop-color="#0685f7"
         id="stop9" />
      <stop
         offset=".24"
         stop-color="#0685f7"
         id="stop10" />
      <stop
         offset="1"
         stop-color="#05007f"
         id="stop11" />
    </linearGradient>
    <clipPath
       id="clippath-3">
      <path
         class="cls-5"
         d="m313.6,177.38l-29.9,49.72c-3.97,6.61,4.25,13.75,10.24,8.9,4.67-3.79,11.61-.19,11.21,5.8l-6.13,92.28c-.48,7.2,9.03,10.19,12.76,4.02l20.68-34.22c2.5-4.14,8.38-4.48,11.34-.65l27.09,35.07c4.03,5.21,12.37,2.34,12.33-4.25l-.64-104.4c-.04-5.96,6.99-9.15,11.45-5.2l6.67,5.9c5.75,5.09,14.26-1.63,10.64-8.4l-22.66-42.34c-1.16-2.17-3.4-3.56-5.86-3.63l-63.11-1.94c-.07,0-.14,0-.21,0-2.41,0-4.65,1.26-5.9,3.34"
         id="path11" />
    </clipPath>
    <linearGradient
       id="Névtelen_színátmenet_4"
       data-name="Névtelen színátmenet 4"
       x1="59.3"
       y1="580.94"
       x2="60.3"
       y2="580.94"
       gradientTransform="translate(-7561.48 77142.82) scale(132.34 -132.34)"
       gradientUnits="userSpaceOnUse">
      <stop
         offset="0"
         stop-color="#0685f7"
         id="stop12" />
      <stop
         offset=".29"
         stop-color="#0685f7"
         id="stop13" />
      <stop
         offset="1"
         stop-color="#05007f"
         id="stop14" />
    </linearGradient>
    <clipPath
       id="clippath-4">
      <path
         class="cls-5"
         d="m346.03,193.5l-5.14,6.87c-3,4.01-2.23,9.69,1.74,12.75l12.06,9.32c4.05,3.13,9.89,2.34,12.96-1.76l5.14-6.87c3-4.01,2.23-9.69-1.74-12.75l-12.06-9.32c-1.67-1.29-3.65-1.92-5.6-1.92-2.79,0-5.55,1.27-7.36,3.68"
         id="path14" />
    </clipPath>
    <linearGradient
       id="Névtelen_színátmenet_5"
       data-name="Névtelen színátmenet 5"
       x1="59.3"
       y1="580.94"
       x2="60.3"
       y2="580.94"
       gradientTransform="translate(-1761.03 20858.55) scale(35.55 -35.55)"
       gradientUnits="userSpaceOnUse">
      <stop
         offset="0"
         stop-color="#f9bb0d"
         id="stop15" />
      <stop
         offset=".14"
         stop-color="#f9bb0d"
         id="stop16" />
      <stop
         offset="1"
         stop-color="#ff9200"
         id="stop17" />
      <stop
         offset="1"
         stop-color="#ff9200"
         id="stop18" />
    </linearGradient>
  </defs>
  <g
     class="cls-6"
     clip-path="url(#clippath)"
     id="g18">
    <rect
       class="cls-14"
       x="71.76"
       y="81.17"
       width="382.01"
       height="365.18"
       transform="translate(-108.32 293.94) rotate(-49.76)"
       id="rect18" />
  </g>
  <g
     class="cls-7"
     clip-path="url(#clippath-1)"
     id="g19">
    <rect
       class="cls-11"
       x="259.34"
       y="115.78"
       width="316.34"
       height="307.73"
       transform="translate(-58.33 413.17) rotate(-49.64)"
       id="rect19" />
  </g>
  <g
     class="cls-3"
     clip-path="url(#clippath-2)"
     id="g20">
    <rect
       class="cls-13"
       x="316.84"
       y="104.32"
       width="68.69"
       height="69.12"
       transform="translate(-26.09 155.57) rotate(-24.11)"
       id="rect20" />
  </g>
  <g
     class="cls-4"
     clip-path="url(#clippath-3)"
     id="g21">
    <rect
       class="cls-12"
       x="253.89"
       y="155.56"
       width="186.93"
       height="207.19"
       transform="translate(-69.45 140.43) rotate(-20.83)"
       id="rect21" />
  </g>
  <g
     class="cls-2"
     clip-path="url(#clippath-4)"
     id="g22">
    <rect
       class="cls-10"
       x="331.2"
       y="181.83"
       width="51.28"
       height="51.73"
       transform="translate(-22.23 371.33) rotate(-53.55)"
       id="rect22" />
  </g>
  <path
     d="m 45.80669,-62.865733 -9.266641,10.161714 q -7.31854,-4.317413 -10.530273,-4.317413 -2.474614,0 -4.264761,1.89545 -1.790146,1.842798 -1.790146,4.422715 0,5.107182 9.26664,8.845429 6.792027,2.895826 10.267017,5.265137 3.47499,2.31666 5.791651,6.476118 2.369311,4.159459 2.369311,9.003384 0,8.898082 -7.213237,15.4795026 -7.160586,6.58142103 -16.953741,6.58142103 -10.740879,0 -21.2185012,-10.10906263 l 9.7931542,-11.425347 q 6.581421,6.792027 12.32042,6.792027 2.68522,0 5.159834,-2.369312 2.474615,-2.421963 2.474615,-5.054531 0,-5.423091 -11.425347,-9.529898 -6.52877,-2.369312 -9.266641,-4.422715 -2.737871,-2.106055 -4.6333203,-6.054907 -1.8427978,-4.001504 -1.8427978,-8.160962 0,-9.21399 6.0022561,-14.952989 6.002256,-5.738999 15.690108,-5.738999 11.477998,0 19.2704,7.213238 z m 10.688227,40.330947 q 0,-10.477622 6.686724,-17.111694 6.686724,-6.634073 17.164346,-6.634073 9.740503,0 16.321924,6.792027 6.634069,6.739375 6.634069,16.743135 0,10.214365 -6.634069,16.9537405 -6.581421,6.73937513 -16.53253,6.73937513 -11.214741,0 -17.427602,-7.10793473 -6.212862,-7.1605859 -6.212862,-16.3745759 z m 33.538922,0 q 0,-4.580669 -3.001128,-8.003007 -3.001128,-3.422339 -7.002632,-3.422339 -4.159458,0 -7.160586,3.211733 -3.001128,3.211733 -3.001128,7.6871 0,4.896577 2.948476,8.318916 3.001128,3.422339 7.213238,3.422339 4.001504,0 7.002632,-3.317036 3.001128,-3.369688 3.001128,-7.897706 z m 24.798801,-22.640088 h 13.68935 v 21.692364 q 0,4.685972 2.36931,7.845054 2.42197,3.10643 5.94961,3.10643 3.73825,0 6.26551,-3.001128 2.57992,-3.053779 2.57992,-7.634448 v -22.008272 h 13.68935 v 26.325684 q 0,8.371568 -6.42346,14.0579155 -6.37082,5.63369639 -15.90072,5.63369639 -10.10906,0 -16.16397,-5.68634779 -6.0549,-5.6863481 -6.0549,-15.1109431 z m 57.96916,-25.114702 h 13.47875 V 0 H 172.8018 Z m 32.95975,1.15833 h 17.69086 l 12.95224,41.436626 12.95224,-41.436626 h 17.11169 L 275.31401,0 H 261.09814 L 255.04323,-48.649864 239.82699,0 h -6.79203 L 217.45016,-49.071075 211.71116,0 h -14.42648 z m 78.71379,7.107934 q 0,-3.422339 2.47462,-5.896953 2.47461,-2.474614 5.9496,-2.474614 3.47499,0 5.94961,2.474614 2.47461,2.474614 2.47461,5.896953 0,3.474991 -2.47461,5.949605 -2.47462,2.474614 -5.94961,2.474614 -3.47499,0 -5.9496,-2.474614 -2.47462,-2.474614 -2.47462,-5.949605 z m 1.7375,16.743135 h 13.47875 V 0 h -13.47875 z m 41.91049,0 v 5.37044 q 6.89733,-6.476118 14.47912,-6.476118 6.47612,0 10.68823,5.317788 4.26476,5.317788 4.26476,13.584053 V 0 h -13.68935 v -25.325308 q 0,-3.896201 -2.15871,-6.581421 -2.10605,-2.68522 -5.15983,-2.68522 -3.6856,0 -6.05491,3.422339 -2.36931,3.369688 -2.36931,8.740127 V 0 h -13.47875 v -45.280177 z m 72.76418,-25.009399 h 13.58405 V 0 h -13.26815 v -7.7397511 h -0.2106 q -5.89695,8.47687025 -14.63708,8.47687025 -7.7924,0 -13.3208,-6.79202645 -5.47574,-6.7920267 -5.47574,-16.5851807 0,-9.793155 5.68635,-16.690484 5.68635,-6.949981 13.6367,-6.949981 4.52802,0 7.63445,1.684844 3.10643,1.632193 6.37082,5.37044 z m -9.95111,37.382471 q -3.31704,0 -6.21286,3.053779 -2.89583,3.05378 -2.89583,8.266265 0,4.159458 2.52727,7.107935 2.57991,2.948476 6.21286,2.948476 4.31741,0 7.21323,-3.159082 2.89583,-3.211733 2.89583,-7.950356 0,-4.106807 -2.84317,-7.160586 -2.79053,-3.106431 -6.89733,-3.106431 z"
     id="text22"
     class="cls-9"
     style="font-weight:700;font-size:107.83px;font-family:TwCenMT-Bold, 'Tw Cen MT';fill:#0856f4"
     transform="translate(538 213.14)"
     aria-label="SoulMind" />
  <path
     d="M 22.580312,-49.134461 44.937792,0 H 38.178553 L 32.644892,-12.107207 H 12.552871 L 7.1677634,0 H 0.44566405 Z m 0,14.818329 -7.613428,16.823818 h 15.226855 z m 50.657147,24.957187 v 7.3905955 q -4.939443,2.82253893 -9.581777,2.82253893 -6.350712,0 -11.141601,-4.75374983 -4.75375,-4.7908885 -4.75375,-11.0673236 0,-7.130625 4.75375,-11.810098 4.75375,-4.716611 11.921513,-4.716611 4.270948,0 8.801865,2.228321 v 7.204902 q -4.865165,-3.119649 -9.21039,-3.119649 -4.010976,0 -7.019209,2.822539 -3.008232,2.822539 -3.008232,6.610684 0,4.270947 2.822539,7.2049017 2.822539,2.8968164 6.907793,2.8968164 4.159531,0 9.507499,-3.7138671 z m 32.087811,-21.280458 h 6.46213 V 0 h -6.46213 v -6.090742 q -4.71661,6.94493143 -11.698679,6.94493143 -6.053603,0 -10.361689,-4.75374983 -4.270947,-4.7537499 -4.270947,-11.5501266 0,-6.42499 4.308086,-11.215879 4.345224,-4.828027 10.175996,-4.828027 3.602451,0 6.833513,1.96835 3.23107,1.968349 5.01372,5.125136 z m 0.85419,15.412548 q 0,-4.19667 -3.00823,-7.167763 -3.00823,-3.008233 -7.204903,-3.008233 -4.085253,0 -7.130624,2.971094 -3.045371,2.971094 -3.045371,6.98207 0,4.345224 2.971093,7.3905955 2.971094,3.045371 7.204902,3.045371 4.196673,0 7.204903,-3.0082324 3.00823,-3.0453711 3.00823,-7.2049021 z m 40.96396,-32.97914 h 6.38785 V 0 h -6.31358 v -6.3878514 q -4.56805,7.24204083 -11.95865,7.24204083 -5.97933,0 -10.25027,-4.79088853 -4.27095,-4.7908885 -4.27095,-11.5129879 0,-6.573545 4.34523,-11.290156 4.34522,-4.75375 10.36168,-4.75375 3.60246,0 6.7221,2.005488 3.11965,2.005489 4.97659,5.236553 z m 0.74277,32.830585 q 0,-4.122392 -3.00823,-7.130624 -3.00824,-3.045371 -7.16777,-3.045371 -4.30808,0 -7.31631,2.971093 -2.9711,2.933955 -2.9711,7.204902 0,4.085254 3.04537,7.1677638 3.04537,3.045371 7.09349,3.045371 4.30808,0 7.31632,-2.9710937 3.00823,-2.9710941 3.00823,-7.2420411 z m 46.16337,1.299854 h -26.14563 q 0.85419,4.716611 3.86242,6.9077926 3.04537,2.1540429 6.61069,2.1540429 5.49652,0 9.21039,-4.5680565 l 4.71661,3.5653123 q -5.31083,6.87065413 -14.22411,6.87065413 -6.83352,0 -11.43871,-4.67947253 -4.6052,-4.6794725 -4.6052,-11.6244039 0,-6.499267 4.64234,-11.253017 4.67947,-4.790889 11.40157,-4.790889 6.61068,0 11.32729,4.865166 4.71661,4.828027 4.64234,12.552871 z m -25.47713,-5.162275 h 18.71789 q -3.11965,-6.313574 -9.21039,-6.313574 -6.64782,0 -9.5075,6.313574 z M 200.88307,0 v -30.639403 h 6.38785 v 4.716611 q 2.26546,-2.896816 4.30809,-4.233809 2.07976,-1.336992 4.75375,-1.336992 3.49103,0 5.45938,1.522686 2.00549,1.522685 3.37962,4.865166 2.41402,-3.342481 4.64234,-4.865166 2.26546,-1.522686 5.23655,-1.522686 3.63959,0 6.27643,2.748262 2.63685,2.711123 2.63685,6.462129 V 0 h -6.42499 v -20.611962 q 0,-5.087998 -5.01372,-5.087998 -2.85968,0 -4.86517,2.599707 -1.96835,2.599707 -1.96835,6.42499 V 0 h -6.46212 v -19.757773 q 0,-6.016464 -4.93945,-6.016464 -2.93395,0 -4.97658,2.451152 -2.04263,2.451152 -2.04263,6.053603 V 0 Z m 47.83461,-30.639403 h 7.31632 l 11.10446,16.638124 7.68771,-16.638124 h 6.68496 l -20.68624,45.012069 h -6.75924 l 10.10172,-21.9118161 z"
     id="text23"
     class="cls-8"
     style="font-size:76.06px;font-family:TwCenMT-Regular, 'Tw Cen MT';fill:#0856f4"
     transform="translate(537.98 292.55)"
     aria-label="Academy" />
</svg>
