<?xml version="1.0" encoding="UTF-8" standalone="no"?>
<svg
   id="Réteg_1"
   data-name="Réteg 1"
   viewBox="0 0 779.99998 334.99999"
   version="1.1"
   sodipodi:docname="logo.svg"
   inkscape:version="1.4.2 (f4327f4, 2025-05-13)"
   width="780"
   height="335"
   xmlns:inkscape="http://www.inkscape.org/namespaces/inkscape"
   xmlns:sodipodi="http://sodipodi.sourceforge.net/DTD/sodipodi-0.dtd"
   xmlns="http://www.w3.org/2000/svg"
   xmlns:svg="http://www.w3.org/2000/svg">
  <sodipodi:namedview
     id="namedview23"
     pagecolor="#ffffff"
     bordercolor="#000000"
     borderopacity="0.25"
     inkscape:showpageshadow="2"
     inkscape:pageopacity="0.0"
     inkscape:pagecheckerboard="0"
     inkscape:deskcolor="#d1d1d1"
     inkscape:zoom="1.5298288"
     inkscape:cx="405.60094"
     inkscape:cy="163.09014"
     inkscape:window-width="1920"
     inkscape:window-height="1009"
     inkscape:window-x="-8"
     inkscape:window-y="-8"
     inkscape:window-maximized="1"
     inkscape:current-layer="Réteg_1" />
  <defs
     id="defs18">
    <style
       id="style1">
      .cls-1 {
        letter-spacing: -.02em;
      }

      .cls-2 {
        clip-path: url(#clippath-4);
      }

      .cls-2, .cls-3, .cls-4, .cls-5, .cls-6, .cls-7 {
        fill: none;
      }

      .cls-3 {
        clip-path: url(#clippath-2);
      }

      .cls-8 {
        font-family: TwCenMT-Regular, 'Tw Cen MT';
        font-size: 76.06px;
      }

      .cls-8, .cls-9 {
        fill: #0856f4;
      }

      .cls-9 {
        font-family: TwCenMT-Bold, 'Tw Cen MT';
        font-size: 107.83px;
        font-weight: 700;
      }

      .cls-4 {
        clip-path: url(#clippath-3);
      }

      .cls-10 {
        fill: url(#Névtelen_színátmenet_5);
      }

      .cls-11 {
        fill: url(#Névtelen_színátmenet_2);
      }

      .cls-6 {
        clip-path: url(#clippath);
      }

      .cls-12 {
        fill: url(#Névtelen_színátmenet_4);
      }

      .cls-7 {
        clip-path: url(#clippath-1);
      }

      .cls-13 {
        fill: url(#Névtelen_színátmenet_3);
      }

      .cls-14 {
        fill: url(#Névtelen_színátmenet);
      }
    </style>
    <clipPath
       id="clippath">
      <path
         class="cls-5"
         d="m 240.01,105.88 c -73.91,34.73 -72.06,113.1 -54.71,151.09 24.06,52.67 79.2,123.73 108.8,161.05 5.85,7.38 15.99,14.16 23.18,7.85 l 5.22,-3.3 c 5.83,-5.12 5.14,-16.23 0.5,-22.27 -27.21,-35.37 -91.81,-118.57 -107.76,-164.73 -10.16,-29.4 -3.33,-77.7 36.16,-98.54 34.09,-17.99 63.2,-3.8 77.15,5.89 5.69,3.95 13.49,4.16 19.36,0.44 l 2.08,-1.31 c 9.08,-5.74 9.45,-17.81 0.8,-24.08 -14.17,-10.28 -37.09,-22.61 -65.51,-22.61 -13.9,0 -29.12,2.95 -45.27,10.54"
         id="path1" />
    </clipPath>
    <linearGradient
       id="Névtelen_színátmenet"
       data-name="Névtelen színátmenet"
       x1="59.299999"
       y1="581"
       x2="60.299999"
       y2="581"
       gradientTransform="matrix(181.7,0,0,-181.7,-10566.32,105832.11)"
       gradientUnits="userSpaceOnUse">
      <stop
         offset="0"
         stop-color="#f9bb0d"
         id="stop1" />
      <stop
         offset=".14"
         stop-color="#f9bb0d"
         id="stop2" />
      <stop
         offset="1"
         stop-color="#ff9200"
         id="stop3" />
      <stop
         offset="1"
         stop-color="#ff9200"
         id="stop4" />
    </linearGradient>
    <clipPath
       id="clippath-1">
      <path
         class="cls-5"
         d="m 362.87,169.63 c -5.27,6.03 -6.64,8.03 0.25,12.5 l 13.53,1.54 c 6.28,4.08 12.66,4.76 17.61,-0.63 15.77,-17.17 50.62,-16.41 65.03,0.89 17.44,20.93 10.8,49.28 0.37,62.42 -31.24,39.36 -104.18,103.57 -128.38,125.7 -4.7,4.3 -5.65,10.93 -2.33,16.2 l 1.19,1.89 c 4.78,7.56 16.06,9.02 22.96,2.98 33.59,-29.41 109.25,-90.61 137.95,-139.29 11.46,-19.44 18.32,-63.54 -14.58,-93.44 -16.15,-14.68 -33.4,-20.22 -49.68,-20.23 -27.14,0 -51.61,15.38 -63.94,29.48"
         id="path4" />
    </clipPath>
    <linearGradient
       id="Névtelen_színátmenet_2"
       data-name="Névtelen színátmenet 2"
       x1="59.299999"
       y1="580.78998"
       x2="60.299999"
       y2="580.78998"
       gradientTransform="matrix(173.55,0,0,-173.55,-9931.08,101065.6)"
       gradientUnits="userSpaceOnUse">
      <stop
         offset="0"
         stop-color="#f9bb0d"
         id="stop5" />
      <stop
         offset=".14"
         stop-color="#f9bb0d"
         id="stop6" />
      <stop
         offset="1"
         stop-color="#ff9200"
         id="stop7" />
      <stop
         offset="1"
         stop-color="#ff9200"
         id="stop8" />
    </linearGradient>
    <clipPath
       id="clippath-2">
      <path
         class="cls-5"
         d="m 325.32,138.88 c 0,14.52 11.58,26.29 25.86,26.29 14.28,0 25.86,-11.77 25.86,-26.29 0,-14.52 -11.58,-26.29 -25.86,-26.29 -14.28,0 -25.86,11.77 -25.86,26.29"
         id="path8" />
    </clipPath>
    <linearGradient
       id="Névtelen_színátmenet_3"
       data-name="Névtelen színátmenet 3"
       x1="59.299999"
       y1="580.95001"
       x2="60.299999"
       y2="580.95001"
       gradientTransform="matrix(51.73,0,0,-51.73,-2739.62,30189.83)"
       gradientUnits="userSpaceOnUse">
      <stop
         offset="0"
         stop-color="#0685f7"
         id="stop9" />
      <stop
         offset=".24"
         stop-color="#0685f7"
         id="stop10" />
      <stop
         offset="1"
         stop-color="#05007f"
         id="stop11" />
    </linearGradient>
    <clipPath
       id="clippath-3">
      <path
         class="cls-5"
         d="m 313.6,177.38 -29.9,49.72 c -3.97,6.61 4.25,13.75 10.24,8.9 4.67,-3.79 11.61,-0.19 11.21,5.8 l -6.13,92.28 c -0.48,7.2 9.03,10.19 12.76,4.02 l 20.68,-34.22 c 2.5,-4.14 8.38,-4.48 11.34,-0.65 l 27.09,35.07 c 4.03,5.21 12.37,2.34 12.33,-4.25 l -0.64,-104.4 c -0.04,-5.96 6.99,-9.15 11.45,-5.2 l 6.67,5.9 c 5.75,5.09 14.26,-1.63 10.64,-8.4 l -22.66,-42.34 c -1.16,-2.17 -3.4,-3.56 -5.86,-3.63 l -63.11,-1.94 c -0.07,0 -0.14,0 -0.21,0 -2.41,0 -4.65,1.26 -5.9,3.34"
         id="path11" />
    </clipPath>
    <linearGradient
       id="Névtelen_színátmenet_4"
       data-name="Névtelen színátmenet 4"
       x1="59.299999"
       y1="580.94"
       x2="60.299999"
       y2="580.94"
       gradientTransform="matrix(132.34,0,0,-132.34,-7561.48,77142.82)"
       gradientUnits="userSpaceOnUse">
      <stop
         offset="0"
         stop-color="#0685f7"
         id="stop12" />
      <stop
         offset=".29"
         stop-color="#0685f7"
         id="stop13" />
      <stop
         offset="1"
         stop-color="#05007f"
         id="stop14" />
    </linearGradient>
    <clipPath
       id="clippath-4">
      <path
         class="cls-5"
         d="m 346.03,193.5 -5.14,6.87 c -3,4.01 -2.23,9.69 1.74,12.75 l 12.06,9.32 c 4.05,3.13 9.89,2.34 12.96,-1.76 l 5.14,-6.87 c 3,-4.01 2.23,-9.69 -1.74,-12.75 l -12.06,-9.32 c -1.67,-1.29 -3.65,-1.92 -5.6,-1.92 -2.79,0 -5.55,1.27 -7.36,3.68"
         id="path14" />
    </clipPath>
    <linearGradient
       id="Névtelen_színátmenet_5"
       data-name="Névtelen színátmenet 5"
       x1="59.299999"
       y1="580.94"
       x2="60.299999"
       y2="580.94"
       gradientTransform="matrix(35.55,0,0,-35.55,-1761.03,20858.55)"
       gradientUnits="userSpaceOnUse">
      <stop
         offset="0"
         stop-color="#f9bb0d"
         id="stop15" />
      <stop
         offset=".14"
         stop-color="#f9bb0d"
         id="stop16" />
      <stop
         offset="1"
         stop-color="#ff9200"
         id="stop17" />
      <stop
         offset="1"
         stop-color="#ff9200"
         id="stop18" />
    </linearGradient>
  </defs>
  <g
     class="cls-6"
     clip-path="url(#clippath)"
     id="g18"
     transform="translate(-174.13635,-94.254)">
    <rect
       class="cls-14"
       x="71.760002"
       y="81.169998"
       width="382.01001"
       height="365.17999"
       transform="rotate(-49.76,262.74938,263.75446)"
       id="rect18"
       style="fill:url(#N%C3%A9vtelen_sz%C3%ADn%C3%A1tmenet)" />
  </g>
  <g
     class="cls-7"
     clip-path="url(#clippath-1)"
     id="g19"
     transform="translate(-174.13635,-94.254)">
    <rect
       class="cls-11"
       x="259.34"
       y="115.78"
       width="316.34"
       height="307.73001"
       transform="rotate(-49.64,417.51635,269.64602)"
       id="rect19"
       style="fill:url(#N%C3%A9vtelen_sz%C3%ADn%C3%A1tmenet_2)" />
  </g>
  <g
     class="cls-3"
     clip-path="url(#clippath-2)"
     id="g20"
     transform="translate(-174.13635,-94.254)">
    <rect
       class="cls-13"
       x="316.84"
       y="104.32"
       width="68.690002"
       height="69.120003"
       transform="rotate(-24.11,351.18508,138.86852)"
       id="rect20"
       style="fill:url(#N%C3%A9vtelen_sz%C3%ADn%C3%A1tmenet_3)" />
  </g>
  <g
     class="cls-4"
     clip-path="url(#clippath-3)"
     id="g21"
     transform="translate(-174.13635,-94.254)">
    <rect
       class="cls-12"
       x="253.89"
       y="155.56"
       width="186.92999"
       height="207.19"
       transform="rotate(-20.83,347.28316,259.13807)"
       id="rect21"
       style="fill:url(#N%C3%A9vtelen_sz%C3%ADn%C3%A1tmenet_4)" />
  </g>
  <g
     class="cls-2"
     clip-path="url(#clippath-4)"
     id="g22"
     transform="translate(-174.13635,-94.254)">
    <rect
       class="cls-10"
       x="331.20001"
       y="181.83"
       width="51.279999"
       height="51.73"
       transform="rotate(-53.55,356.83807,207.69284)"
       id="rect22"
       style="fill:url(#N%C3%A9vtelen_sz%C3%ADn%C3%A1tmenet_5)" />
  </g>
  <path
     d="m 409.67034,56.02027 -9.26664,10.16171 q -7.31854,-4.31741 -10.53027,-4.31741 -2.47462,0 -4.26477,1.89545 -1.79014,1.8428 -1.79014,4.42271 0,5.10718 9.26664,8.84543 6.79203,2.89583 10.26702,5.26514 3.47499,2.31666 5.79165,6.47612 2.36931,4.159457 2.36931,9.003377 0,8.898083 -7.21324,15.479503 -7.16059,6.58142 -16.95374,6.58142 -10.74088,0 -21.2185,-10.10906 l 9.79315,-11.425353 q 6.58142,6.792033 12.32042,6.792033 2.68522,0 5.15984,-2.36931 2.47461,-2.42196 2.47461,-5.054533 0,-5.423087 -11.42535,-9.529897 -6.52877,-2.36931 -9.26664,-4.42271 -2.73787,-2.10606 -4.63332,-6.05491 -1.84279,-4.00151 -1.84279,-8.16096 0,-9.21399 6.00225,-14.95299 6.00226,-5.739 15.69011,-5.739 11.478,0 19.2704,7.21324 z m 10.68823,40.330937 q 0,-10.477617 6.68672,-17.111687 6.68673,-6.63407 17.16435,-6.63407 9.7405,0 16.32192,6.79202 6.63407,6.73938 6.63407,16.743137 0,10.214363 -6.63407,16.953743 -6.58142,6.73937 -16.53253,6.73937 -11.21474,0 -17.4276,-7.10793 -6.21286,-7.16059 -6.21286,-16.374583 z m 33.53892,0 q 0,-4.580667 -3.00113,-8.002997 -3.00113,-3.42234 -7.00263,-3.42234 -4.15946,0 -7.16059,3.21173 -3.00112,3.21173 -3.00112,7.687097 0,4.896583 2.94847,8.318923 3.00113,3.42234 7.21324,3.42234 4.0015,0 7.00263,-3.31704 3.00113,-3.36969 3.00113,-7.897713 z m 24.7988,-22.640077 h 13.68935 v 21.692357 q 0,4.685973 2.36931,7.845053 2.42197,3.10643 5.94961,3.10643 3.73825,0 6.26551,-3.00112 2.57992,-3.05378 2.57992,-7.634453 V 73.71113 h 13.68935 v 26.32568 q 0,8.37157 -6.42346,14.05792 -6.37082,5.63369 -15.90072,5.63369 -10.10906,0 -16.16397,-5.68635 -6.0549,-5.68634 -6.0549,-15.110943 z M 536.66545,48.59642 H 550.1442 V 118.886 h -13.47875 z m 32.95975,1.15833 h 17.69086 l 12.95224,41.43663 12.95224,-41.43663 h 17.11169 l 8.84543,69.13125 H 624.96179 L 618.90688,70.23614 603.69064,118.886 h -6.79203 l -15.5848,-49.07108 -5.739,49.07108 h -14.42648 z m 78.71379,7.10794 q 0,-3.42234 2.47462,-5.89695 2.47461,-2.47462 5.9496,-2.47462 3.47499,0 5.94961,2.47462 2.47461,2.47461 2.47461,5.89695 0,3.47499 -2.47461,5.9496 -2.47462,2.47462 -5.94961,2.47462 -3.47499,0 -5.9496,-2.47462 -2.47462,-2.47461 -2.47462,-5.9496 z m 1.7375,16.74313 h 13.47875 V 118.886 h -13.47875 z m 41.91049,0 v 5.37044 q 6.89733,-6.47612 14.47912,-6.47612 6.47612,0 10.68823,5.31779 4.26476,5.31779 4.26476,13.58406 V 118.886 H 707.72974 V 93.560687 q 0,-3.896197 -2.15871,-6.581417 -2.10605,-2.68522 -5.15983,-2.68522 -3.6856,0 -6.05491,3.42234 -2.36931,3.36969 -2.36931,8.740127 V 118.886 H 678.50823 V 73.60582 Z m 72.76418,-25.0094 h 13.58405 V 118.886 h -13.26815 v -7.73975 h -0.2106 q -5.89695,8.47687 -14.63708,8.47687 -7.7924,0 -13.3208,-6.79203 -5.47574,-6.79202 -5.47574,-16.585183 0,-9.793147 5.68635,-16.690477 5.68635,-6.94998 13.6367,-6.94998 4.52802,0 7.63445,1.68484 3.10643,1.63219 6.37082,5.37044 z m -9.95111,37.38247 q -3.31704,0 -6.21286,3.05378 -2.89583,3.05378 -2.89583,8.266267 0,4.159463 2.52727,7.107933 2.57991,2.94848 6.21286,2.94848 4.31741,0 7.21323,-3.15908 2.89583,-3.21174 2.89583,-7.950363 0,-4.106807 -2.84317,-7.160577 -2.79053,-3.10644 -6.89733,-3.10644 z"
     id="text22"
     class="cls-9"
     style="font-weight:700;font-size:107.83px;font-family:TwCenMT-Bold, 'Tw Cen MT';fill:#0856f4"
     aria-label="SoulMind" />
  <path
     d="m 386.42396,149.16154 22.35748,49.13446 h -6.75924 l -5.53366,-12.10721 h -20.09202 l -5.38511,12.10721 h -6.7221 z m 0,14.81833 -7.61343,16.82382 h 15.22686 z m 50.65715,24.95718 v 7.3906 q -4.93944,2.82254 -9.58178,2.82254 -6.35071,0 -11.1416,-4.75375 -4.75375,-4.79089 -4.75375,-11.06732 0,-7.13063 4.75375,-11.8101 4.75375,-4.71661 11.92151,-4.71661 4.27095,0 8.80187,2.22832 v 7.2049 q -4.86517,-3.11965 -9.21039,-3.11965 -4.01098,0 -7.01921,2.82254 -3.00823,2.82254 -3.00823,6.61068 0,4.27095 2.82254,7.20491 2.82254,2.89681 6.90779,2.89681 4.15953,0 9.5075,-3.71387 z m 32.08781,-21.28045 h 6.46213 v 30.6394 h -6.46213 v -6.09074 q -4.71661,6.94493 -11.69868,6.94493 -6.0536,0 -10.36169,-4.75375 -4.27094,-4.75375 -4.27094,-11.55013 0,-6.42499 4.30808,-11.21588 4.34523,-4.82802 10.176,-4.82802 3.60245,0 6.83351,1.96835 3.23107,1.96835 5.01372,5.12513 z m 0.85419,15.41254 q 0,-4.19666 -3.00823,-7.16776 -3.00823,-3.00823 -7.2049,-3.00823 -4.08526,0 -7.13063,2.97109 -3.04537,2.9711 -3.04537,6.98207 0,4.34523 2.9711,7.3906 2.97109,3.04537 7.2049,3.04537 4.19667,0 7.2049,-3.00823 3.00823,-3.04537 3.00823,-7.20491 z M 510.98707,150.09 h 6.38785 v 48.206 h -6.31358 v -6.38785 q -4.56805,7.24204 -11.95865,7.24204 -5.97933,0 -10.25027,-4.79089 -4.27095,-4.79089 -4.27095,-11.51299 0,-6.57354 4.34523,-11.29015 4.34522,-4.75375 10.36168,-4.75375 3.60246,0 6.7221,2.00548 3.11965,2.00549 4.97659,5.23656 z m 0.74277,32.83059 q 0,-4.12239 -3.00823,-7.13062 -3.00824,-3.04537 -7.16777,-3.04537 -4.30808,0 -7.31631,2.97109 -2.9711,2.93395 -2.9711,7.2049 0,4.08525 3.04537,7.16776 3.04537,3.04537 7.09349,3.04537 4.30808,0 7.31632,-2.97109 3.00823,-2.97109 3.00823,-7.24204 z m 46.16337,1.29985 h -26.14563 q 0.85419,4.71661 3.86242,6.9078 3.04537,2.15404 6.61069,2.15404 5.49652,0 9.21039,-4.56806 l 4.71661,3.56532 q -5.31083,6.87065 -14.22411,6.87065 -6.83352,0 -11.43871,-4.67947 -4.6052,-4.67948 -4.6052,-11.62441 0,-6.49926 4.64234,-11.25301 4.67947,-4.79089 11.40157,-4.79089 6.61068,0 11.32729,4.86516 4.71661,4.82803 4.64234,12.55287 z m -25.47713,-5.16227 h 18.71789 q -3.11965,-6.31357 -9.21039,-6.31357 -6.64782,0 -9.5075,6.31357 z m 32.31064,19.23783 v -30.6394 h 6.38785 v 4.71661 q 2.26546,-2.89682 4.30809,-4.23381 2.07976,-1.33699 4.75375,-1.33699 3.49103,0 5.45938,1.52268 2.00549,1.52269 3.37962,4.86517 2.41402,-3.34248 4.64234,-4.86517 2.26546,-1.52268 5.23655,-1.52268 3.63959,0 6.27643,2.74826 2.63685,2.71112 2.63685,6.46213 v 22.2832 h -6.42499 v -20.61196 q 0,-5.088 -5.01372,-5.088 -2.85968,0 -4.86517,2.59971 -1.96835,2.5997 -1.96835,6.42499 V 198.296 h -6.46212 v -19.75777 q 0,-6.01647 -4.93945,-6.01647 -2.93395,0 -4.97658,2.45116 -2.04263,2.45115 -2.04263,6.0536 V 198.296 Z m 47.83461,-30.6394 h 7.31632 l 11.10446,16.63812 7.68771,-16.63812 h 6.68496 l -20.68624,45.01207 h -6.75924 l 10.10172,-21.91182 z"
     id="text23"
     class="cls-8"
     style="font-size:76.06px;font-family:TwCenMT-Regular, 'Tw Cen MT';fill:#0856f4"
     aria-label="Academy" />
</svg>
